<svg xmlns="http://www.w3.org/2000/svg" shape-rendering="geometricPrecision" text-rendering="geometricPrecision" image-rendering="optimizeQuality" fill-rule="evenodd" clip-rule="evenodd" viewBox="0 0 423 511.963"><path fill="#4D4D4D" fill-rule="nonzero" d="M211.5 0c58.397 0 111.276 23.681 149.547 61.953C399.318 100.224 423 153.103 423 211.5c0 58.397-23.682 111.276-61.953 149.548C322.776 399.319 269.897 423 211.5 423c-58.391 0-111.276-23.681-149.548-61.952C23.681 322.776 0 269.891 0 211.5c0-58.397 23.681-111.276 61.952-149.547C100.224 23.681 153.103 0 211.5 0z"/><path fill="#fff" fill-rule="nonzero" d="M211.501 16.19c53.93 0 102.761 21.866 138.104 57.207 35.341 35.343 57.207 84.173 57.207 138.104 0 53.931-21.866 102.761-57.209 138.102-35.341 35.344-84.172 57.209-138.102 57.209-53.931 0-102.762-21.865-138.105-57.206-35.34-35.344-57.206-84.174-57.206-138.105 0-53.931 21.866-102.761 57.206-138.104C108.739 38.056 157.57 16.19 211.501 16.19z"/><path fill="#007934" fill-rule="nonzero" d="M379.754 272.09c-24.824 68.921-90.782 118.2-168.253 118.2-77.474 0-143.432-49.279-168.253-118.2h336.506z"/><path fill="#F9E300" fill-rule="nonzero" d="M43.248 272.09h336.506c6.814-18.921 10.536-39.318 10.536-60.589 0-21.334-3.744-41.792-10.598-60.76H43.309c-6.854 18.968-10.597 39.426-10.597 60.76 0 21.271 3.722 41.668 10.536 60.589z"/><path fill="#D52B1E" fill-rule="nonzero" d="M43.309 150.741h336.383c-24.87-68.832-90.783-118.029-168.191-118.029-77.411 0-143.322 49.197-168.192 118.029z"/><path fill="#4D4D4D" fill-rule="nonzero" d="M72.835 325.027h277.326c14.712 0 24.949 11.892 26.911 26.912l20.461 133.113c0 14.711-12.199 26.911-26.91 26.911H52.374c-14.76 0-26.905-12.151-26.905-26.911L45.93 351.939c3.364-15.666 12.864-26.906 26.905-26.912z"/><path fill="#fff" d="M70.942 335.923h281.119c7.753 0 13.049 6.928 14.126 14.126l20.464 136.897c1.077 7.206-6.821 14.126-14.126 14.126H50.486c-7.304 0-15.275-6.437-14.125-14.126l20.455-136.897c1.149-7.689 6.389-14.126 14.126-14.126z"/><path fill="#333" fill-rule="nonzero" d="M128.256 400.337h-9.319v-38.353h11.409l6.212 20.492 6.212-20.492h11.412v38.353h-9.26v-24.373l-4.779 16.068h-7.168l-4.719-15.949v24.254zm50.238 0l-1.195-5.735h-9.2l-1.254 5.735H156.57l9.856-38.353h12.724l9.859 38.353h-10.515zm-8.783-13.142h5.976l-2.927-13.8-3.049 13.8zm22.285-25.211h17.622c5.853 0 8.783 2.47 8.783 7.409v23.536c0 4.939-2.93 7.408-8.783 7.408h-17.622v-38.353zm15.949 30.167v-21.982c0-.876-.498-1.315-1.493-1.315h-4.002v24.612h4.002c.995 0 1.493-.437 1.493-1.315zm25.509.717h13.083v7.469h-23.536v-38.353H246v7.468h-12.546v7.826h10.812v7.466h-10.812v8.124zm28.317-30.884h10.453v38.353h-10.453v-38.353zm32.735 0h9.559v38.353h-8.961l-8.541-20.132v20.132h-9.559v-38.353h8.961l8.541 20.492v-20.492z"/><path fill="#D52B1E" fill-rule="nonzero" d="M108.857 441.472v-8.7c0-1.226-.695-1.841-2.091-1.841h-6.024v12.382h6.024c1.396 0 2.091-.614 2.091-1.841zm0 22.085v-8.783c0-1.226-.695-1.841-2.091-1.841h-6.024v12.466h6.024c1.396 0 2.091-.615 2.091-1.842zm-22.503-42.245h24.595c8.197 0 12.297 3.458 12.297 10.373v6.861c0 4.851-1.339 8.002-4.017 9.45 1.564.671 2.622 1.688 3.181 3.054.556 1.368.836 3.222.836 5.563v8.032c0 6.915-4.1 10.373-12.297 10.373H86.354v-53.706zm55.212 0h12.38c8.2 0 12.297 3.458 12.297 10.373v32.96c0 6.915-4.097 10.373-12.297 10.373h-12.38c-8.198 0-12.298-3.458-12.298-10.373v-32.96c0-6.915 4.1-10.373 12.298-10.373zm10.038 41.409v-29.112c0-1.227-.697-1.842-2.092-1.842h-3.513c-1.394 0-2.092.615-2.092 1.842v29.112c0 1.226.698 1.841 2.092 1.841h3.513c1.395 0 2.092-.615 2.092-1.841zm35.719 1.841h16.649v10.456h-31.288v-53.706h14.639v43.25zm19.995-43.25h14.639v53.706h-14.639v-53.706zm46.762 0h15.224l-13.216 53.706h-16.983l-13.217-53.706h15.227l6.441 35.887 6.524-35.887zm19.156 0h14.639v53.706h-14.639v-53.706zm48.687 53.706l-1.673-8.032h-12.883l-1.758 8.032h-14.388l13.802-53.706h17.82l13.802 53.706h-14.722zm-12.297-18.405h8.365l-4.1-19.324-4.265 19.324z"/></svg>